<?xml version="1.0" encoding="UTF-8"?>
<svg width="509px" height="240px" viewBox="0 0 509 240" version="1.1" xmlns="http://www.w3.org/2000/svg" xmlns:xlink="http://www.w3.org/1999/xlink">
    <!-- Generator: Sketch 63.1 (92452) - https://sketch.com -->
    <title>Self.Id</title>
    <desc>Created with Sketch.</desc>
    <g id="Page-1" stroke="none" stroke-width="1" fill="none" fill-rule="evenodd">
        <path d="M55.7808219,240 L55.7808219,0 L0,0 L0,240 L55.7808219,240 Z M195.232877,240 C262.518493,240 313.767123,187.885714 313.767123,120 C313.767123,52.1142857 262.518493,0 195.232877,0 L97.6164384,0 L97.6164384,240 L195.232877,240 Z M195.232877,187.2 L153.39726,187.2 L153.39726,52.8 L195.232877,52.8 C233.582192,52.8 260.078082,78.8571429 260.078082,120 C260.078082,161.142857 233.582192,187.2 195.232877,187.2 Z M366.758904,0 L403.438,61.791 L442.193316,1.42108547e-14 L505.513699,1.42108547e-14 L433.591,112.623 L436.136301,116.914286 L509,240 L445.549315,240 L404.410959,170.742857 L363.272603,240 L299.821918,240 L372.685616,116.914286 L303.308219,0 L366.758904,0 Z M55.7808219,53.1428571 L55.7808219,104.571429 L0,104.571429 L0,53.1428571 L55.7808219,53.1428571 Z M153.39726,53.1428571 L153.39726,104.571429 L97.6164384,104.571429 L97.6164384,53.1428571 L153.39726,53.1428571 Z" id="Self.Id" fill="#FFFFFF" fill-rule="nonzero"></path>
    </g>
</svg>