<svg width="50" height="48" viewBox="0 0 50 48" fill="none" xmlns="http://www.w3.org/2000/svg">
<path d="M38.3082 39.9521C37.9955 40.2137 34.5726 40.0501 34.2186 40.2542C33.8646 40.4583 32.3305 43.4793 31.9459 43.6196C31.5613 43.76 28.4016 42.4522 27.9982 42.5246C27.5947 42.597 25.1051 44.9185 24.695 44.9208C24.2849 44.923 21.7695 42.6287 21.3652 42.5607C20.961 42.4927 17.8161 43.8347 17.43 43.6986C17.0438 43.5624 15.476 40.5583 15.1198 40.3581C14.7635 40.1578 11.3427 40.3586 11.0271 40.1004C10.7115 39.8423 10.2805 36.4907 10.0151 36.1824C9.74978 35.8742 6.46563 34.9094 6.25862 34.5603C6.05161 34.2113 6.80935 30.9166 6.66696 30.5374C6.52458 30.1583 3.77319 28.1443 3.69975 27.7465C3.62631 27.3488 5.48139 24.5082 5.47912 24.1039C5.47686 23.6996 3.59013 20.8794 3.65911 20.4809C3.72809 20.0823 6.45678 18.0386 6.59491 17.6579C6.73305 17.2772 5.93849 13.9909 6.14158 13.6397C6.34468 13.2884 9.61783 12.288 9.8797 11.9768C10.1416 11.6657 10.5351 8.30965 10.8478 8.04806C11.1605 7.78648 14.5833 7.95001 14.9373 7.74593C15.2913 7.54185 16.8254 4.52089 17.21 4.38052C17.5946 4.24015 20.7543 5.54793 21.1577 5.47553C21.5612 5.40313 24.0508 3.08162 24.4609 3.07938C24.871 3.07716 27.3864 5.37146 27.7907 5.43947C28.195 5.50748 31.3398 4.16541 31.726 4.30159C32.1121 4.43777 33.6799 7.44187 34.0362 7.64209C34.3924 7.84231 37.8132 7.64156 38.1288 7.89973C38.4444 8.1579 38.8755 11.5094 39.1408 11.8177C39.4061 12.126 42.6903 13.0908 42.8973 13.4398C43.1043 13.7888 42.3466 17.0836 42.4889 17.4627C42.6313 17.8419 45.3827 19.8558 45.4562 20.2536C45.5296 20.6514 43.6745 23.4919 43.6768 23.8962C43.679 24.3005 45.5658 27.1207 45.4968 27.5193C45.4278 27.9178 42.6991 29.9616 42.561 30.3423C42.4229 30.7229 43.2174 34.0092 43.0143 34.3605C42.8112 34.7117 39.5381 35.7122 39.2762 36.0233C39.0143 36.3345 38.6209 39.6905 38.3082 39.9521Z" fill="#00FFFE"/>
<path d="M30.3962 32.47C30.4311 32.4375 30.4619 32.3994 30.4864 32.3555C30.61 32.1335 30.5289 31.8539 30.3052 31.7311C29.2602 31.1575 28.7393 30.3891 28.7393 30.3891C28.3916 29.6872 28.0852 29.1098 27.8599 27.8584C27.8573 27.8458 27.7855 27.1933 27.7802 26.9996L27.4637 23.9664C27.433 23.6731 27.6086 23.385 27.8827 23.2779L35.2008 20.421C35.6888 20.2309 35.7661 19.5462 35.3272 19.3053L32.2551 17.6186C32.1073 17.5375 31.929 17.5282 31.7649 17.5926L24.5473 20.6306C24.3904 20.6969 24.2109 20.6997 24.0566 20.6275C23.816 20.5139 23.7807 20.2952 23.9933 19.9125L26.5985 15.2246C26.7655 14.9236 26.6738 14.5549 26.3933 14.4008L24.1046 13.1447C23.8241 12.9906 23.4613 13.1097 23.2941 13.4108L22.1737 15.4268C22.1216 15.5261 21.9263 15.4025 21.8728 15.3772C21.7677 15.3274 21.8728 15.3772 21.7759 15.3238L19.6365 14.1497C19.2955 13.9623 18.8545 14.1073 18.6515 14.4731L17.8419 15.9296C17.6386 16.2955 17.7502 16.7438 18.0912 16.9308L20.2304 18.1052C20.3275 18.1584 20.3918 18.2075 20.4977 18.2709C20.548 18.301 20.5677 18.317 20.5375 18.3713L18.1694 22.5848C18.1663 22.5889 18.1133 22.6812 18.0418 22.7973C17.9803 22.8975 17.8671 22.8531 17.7274 22.7833C17.7066 22.7727 17.6908 22.7516 17.6583 22.7339L15.5189 21.5596C15.1782 21.3724 14.7369 21.5171 14.5339 21.8828L13.7245 23.3397C13.5213 23.7053 13.6329 24.1535 13.9736 24.3407L16.113 25.515C16.2102 25.5684 16.298 25.5968 16.3808 25.6617C16.4269 25.6981 16.425 25.7724 16.3947 25.827L15.2799 27.833C15.1129 28.1339 15.2045 28.5027 15.4848 28.6567L17.7737 29.9129C18.054 30.067 18.417 29.9479 18.584 29.6467L20.3947 26.3889C20.4691 26.2548 20.5869 26.1509 20.7254 26.0965L22.6455 25.3455C23.0085 25.2033 23.7413 25.5465 23.7814 25.9346L23.9503 27.5649C23.9503 27.567 23.9503 27.5685 23.9506 27.5705C23.9495 27.6826 24.0185 31.2555 25.9107 34.0094C25.9107 34.0094 26.2445 34.5289 27.1033 35.0128C27.2595 35.0984 27.4433 35.0848 27.5823 34.9932L27.5843 34.9962L27.6059 34.9769C27.6265 34.9612 27.6458 34.9437 27.6637 34.9249L30.3962 32.47Z" fill="#0F1837"/>
</svg>
