<svg width="157" height="54" viewBox="0 0 157 54" fill="none" xmlns="http://www.w3.org/2000/svg">
<path d="M44.0477 47.1082C43.6555 47.4363 39.3625 47.2312 38.9185 47.4872C38.4745 47.7431 36.5505 51.5321 36.0681 51.7081C35.5857 51.8842 31.6228 50.2439 31.1168 50.3347C30.6107 50.4255 27.4883 53.3372 26.9739 53.34C26.4596 53.3428 23.3047 50.4653 22.7977 50.38C22.2906 50.2947 18.3463 51.9779 17.862 51.8071C17.3777 51.6363 15.4114 47.8685 14.9645 47.6174C14.5177 47.3663 10.2273 47.6181 9.83143 47.2943C9.4356 46.9705 8.89502 42.7669 8.56223 42.3803C8.22944 41.9937 4.11042 40.7836 3.85078 40.3459C3.59115 39.9081 4.54152 35.7758 4.36293 35.3003C4.18435 34.8247 0.733532 32.2988 0.641423 31.7999C0.549314 31.301 2.87596 27.7384 2.87313 27.2313C2.87029 26.7242 0.50393 23.1871 0.590451 22.6872C0.676967 22.1874 4.09931 19.624 4.27256 19.1466C4.44582 18.6692 3.44928 14.5474 3.70399 14.1069C3.95871 13.6663 8.06394 12.4116 8.39239 12.0213C8.72083 11.6311 9.21434 7.42192 9.60653 7.09384C9.99872 6.76576 14.2917 6.97086 14.7357 6.7149C15.1797 6.45895 17.1038 2.67002 17.5861 2.49396C18.0685 2.31791 22.0314 3.95815 22.5374 3.86734C23.0435 3.77654 26.166 0.864862 26.6803 0.862063C27.1947 0.859268 30.3495 3.73681 30.8566 3.82211C31.3636 3.9074 35.3079 2.22417 35.7922 2.39497C36.2765 2.56577 38.2428 6.33355 38.6897 6.58466C39.1366 6.83578 43.427 6.584 43.8228 6.9078C44.2186 7.2316 44.7592 11.4351 45.092 11.8218C45.4248 12.2084 49.5438 13.4185 49.8034 13.8562C50.0631 14.294 49.1127 18.4263 49.2913 18.9018C49.4699 19.3774 52.9207 21.9033 53.0128 22.4022C53.1049 22.9011 50.7783 26.4637 50.7811 26.9708C50.7839 27.4779 53.1503 31.015 53.0638 31.5149C52.9773 32.0147 49.5549 34.578 49.3817 35.0555C49.2084 35.5329 50.205 39.6547 49.9502 40.0952C49.6955 40.5357 45.5903 41.7905 45.2618 42.1807C44.9334 42.571 44.4399 46.7802 44.0477 47.1082Z" fill="#161844"/>
<path d="M34.1244 37.7239C34.1683 37.6832 34.2069 37.6354 34.2376 37.5804C34.3926 37.3019 34.2909 36.9513 34.0104 36.7973C32.6998 36.0779 32.0464 35.1141 32.0464 35.1141C31.6103 34.2338 31.226 33.5096 30.9434 31.9401C30.9402 31.9242 30.8501 31.1058 30.8435 30.8629L30.4465 27.0587C30.408 26.6908 30.6283 26.3294 30.972 26.1951L40.1504 22.6119C40.7626 22.3735 40.8595 21.5147 40.309 21.2126L36.456 19.0972C36.2706 18.9955 36.0469 18.9839 35.8411 19.0646L26.7888 22.8748C26.5919 22.958 26.3668 22.9615 26.1733 22.8709C25.8715 22.7285 25.8272 22.4542 26.0939 21.9742L29.3613 16.0946C29.5708 15.7171 29.4558 15.2546 29.104 15.0614L26.2335 13.4859C25.8817 13.2927 25.4267 13.4421 25.2169 13.8197L23.8118 16.3482C23.7464 16.4727 23.5015 16.3177 23.4344 16.286C23.3026 16.2235 23.4344 16.286 23.3128 16.2191L20.6295 14.7465C20.2019 14.5114 19.6487 14.6932 19.3941 15.1521L18.3787 16.9788C18.1238 17.4377 18.2637 18 18.6914 18.2345L21.3744 19.7074C21.4963 19.7742 21.5769 19.8357 21.7096 19.9153C21.7728 19.9531 21.7975 19.9731 21.7596 20.0413L18.7895 25.3259C18.7857 25.331 18.7191 25.4467 18.6294 25.5924C18.5524 25.718 18.4103 25.6623 18.2352 25.5748C18.2091 25.5615 18.1892 25.535 18.1485 25.5129L15.4652 24.04C15.0379 23.8052 14.4844 23.9868 14.2298 24.4453L13.2147 26.2727C12.9598 26.7312 13.0998 27.2933 13.5271 27.5281L16.2104 29.001C16.3323 29.068 16.4424 29.1036 16.5462 29.1849C16.604 29.2306 16.6017 29.3237 16.5637 29.3922L15.1654 31.9082C14.956 32.2857 15.0709 32.7481 15.4224 32.9413L18.2932 34.5168C18.6447 34.7101 19.1001 34.5607 19.3096 34.183L21.5805 30.097C21.6738 29.9289 21.8216 29.7984 21.9952 29.7302L24.4035 28.7883C24.8588 28.61 25.7779 29.0405 25.8282 29.5271L26.04 31.5719C26.04 31.5745 26.04 31.5765 26.0403 31.579C26.039 31.7196 26.1255 36.2007 28.4988 39.6547C28.4988 39.6547 28.9174 40.3062 29.9945 40.9131C30.1904 41.0205 30.421 41.0035 30.5952 40.8886L30.5978 40.8924L30.6249 40.8682C30.6507 40.8484 30.6749 40.8265 30.6974 40.803L34.1244 37.7239Z" fill="#B7BAC3"/>
<path d="M80.8845 14.792L69.5625 26.216V14.792H64.9725V39H69.5625V31.418L73.3705 27.712L81.1225 39H86.5965L76.6345 24.652L86.5965 14.792H80.8845Z" fill="#161844"/>
<path d="M97.3939 21.184C94.8779 21.184 93.1099 22.34 92.1579 24.584V21.456H88.0099V39H92.2939V30.092C92.2939 28.494 92.7019 27.27 93.5859 26.454C94.4699 25.638 95.7279 25.196 97.3599 25.196H98.4479V21.252C98.1079 21.218 97.7679 21.184 97.3939 21.184Z" fill="#161844"/>
<path d="M116.521 30.534C116.521 27.712 115.739 25.434 114.175 23.666C112.611 21.932 110.503 21.048 107.851 21.048C105.267 21.048 103.159 21.898 101.561 23.564C99.963 25.264 99.181 27.474 99.181 30.228C99.181 33.016 99.963 35.226 101.595 36.892C103.193 38.592 105.301 39.408 107.919 39.408C109.993 39.408 111.761 38.898 113.223 37.844C114.651 36.79 115.603 35.362 116.079 33.56H111.965C111.217 35.26 109.891 36.076 107.953 36.076C106.627 36.076 105.573 35.702 104.791 34.954C104.009 34.206 103.533 33.05 103.397 31.554H116.521V30.534ZM107.817 24.38C109.041 24.38 110.027 24.754 110.809 25.502C111.557 26.25 112.033 27.27 112.237 28.562H103.431C103.839 25.774 105.301 24.38 107.817 24.38Z" fill="#161844"/>
<path d="M129.011 21.048C126.631 21.048 124.795 21.966 123.571 23.734V14.792H119.287V39H123.401V36.484C124.659 38.456 126.529 39.408 129.011 39.408C131.391 39.408 133.329 38.592 134.757 36.892C136.151 35.226 136.865 33.016 136.865 30.228C136.865 27.44 136.151 25.23 134.757 23.53C133.329 21.898 131.391 21.048 129.011 21.048ZM124.693 34.41C123.877 33.458 123.469 32.064 123.469 30.228C123.469 28.426 123.843 27.032 124.659 26.046C125.441 25.094 126.563 24.584 127.991 24.584C129.419 24.584 130.541 25.06 131.323 26.012C132.105 26.964 132.513 28.324 132.513 30.092C132.513 31.928 132.105 33.356 131.323 34.342C130.507 35.362 129.385 35.872 127.991 35.872C126.563 35.872 125.441 35.396 124.693 34.41Z" fill="#161844"/>
<path d="M143.791 19.178V15.166H139.575V19.178H143.791ZM143.825 39V21.456H139.541V39H143.825Z" fill="#161844"/>
<path d="M156.423 21.456H152.955V16.356H148.705V21.456H145.985V24.72H148.705V34.648C148.705 36.212 149.113 37.368 149.997 38.082C150.881 38.796 152.275 39.136 154.179 39.136C154.723 39.136 155.471 39.102 156.423 39V35.736H154.961C154.213 35.736 153.703 35.634 153.397 35.396C153.091 35.192 152.955 34.784 152.955 34.206V24.72H156.423V21.456Z" fill="#161844"/>
</svg>
